<?xml version="1.0" encoding="UTF-8" standalone="no"?>
<!-- Created with Inkscape (http://www.inkscape.org/) -->

<svg
   width="1920"
   height="1080"
   viewBox="0 0 1920 1080"
   version="1.1"
   id="svg5"
   inkscape:version="1.1.2 (0a00cf5339, 2022-02-04)"
   sodipodi:docname="logo.svg"
   xmlns:inkscape="http://www.inkscape.org/namespaces/inkscape"
   xmlns:sodipodi="http://sodipodi.sourceforge.net/DTD/sodipodi-0.dtd"
   xmlns="http://www.w3.org/2000/svg"
   xmlns:svg="http://www.w3.org/2000/svg">
  <sodipodi:namedview
     id="namedview7"
     pagecolor="#505050"
     bordercolor="#eeeeee"
     borderopacity="1"
     inkscape:pageshadow="0"
     inkscape:pageopacity="0"
     inkscape:pagecheckerboard="0"
     inkscape:document-units="px"
     showgrid="false"
     inkscape:snap-page="true"
     inkscape:zoom="0.30409499"
     inkscape:cx="550.81474"
     inkscape:cy="562.3243"
     inkscape:window-width="1920"
     inkscape:window-height="1022"
     inkscape:window-x="0"
     inkscape:window-y="27"
     inkscape:window-maximized="1"
     inkscape:current-layer="layer2" />
  <defs
     id="defs2" />
  <g
     inkscape:groupmode="layer"
     id="layer2"
     inkscape:label="Calque 2" />
  <g
     inkscape:label="Calque 1"
     inkscape:groupmode="layer"
     id="layer1">
    <path
       id="text1574"
       style="font-style:normal;font-variant:normal;font-weight:normal;font-stretch:normal;font-size:371.863px;line-height:1.25;font-family:'Rubik Mono One';-inkscape-font-specification:'Rubik Mono One';fill:#2ca05a;stroke-width:1.93679"
       d="M 34.248047 409.84766 C 31.521051 409.84766 29.166863 410.839 27.183594 412.82227 C 25.200324 414.80553 24.208984 417.16168 24.208984 419.88867 L 24.208984 660.11133 C 24.208984 662.83832 25.200324 665.19447 27.183594 667.17773 C 29.166863 669.161 31.521051 670.15234 34.248047 670.15234 L 101.55664 670.15234 C 104.28364 670.15234 106.63782 669.161 108.62109 667.17773 C 110.60436 665.19447 111.5957 662.83832 111.5957 660.11133 L 111.5957 544.83398 L 138.74219 598.38281 C 139.48591 600.11817 141.22027 602.10085 143.94727 604.33203 C 146.67426 606.56321 150.14493 607.67969 154.35938 607.67969 L 179.64648 607.67969 C 182.62139 607.67969 185.59736 606.93472 188.57227 605.44727 C 191.54717 603.7119 193.77817 601.35772 195.26562 598.38281 L 222.41211 544.83398 L 222.41211 660.11133 C 222.41211 662.83832 223.40345 665.19447 225.38672 667.17773 C 227.36999 669.161 229.72418 670.15234 232.45117 670.15234 L 299.75781 670.15234 C 302.48481 670.15234 304.84095 669.161 306.82422 667.17773 C 308.80749 665.19447 309.79883 662.83832 309.79883 660.11133 L 309.79883 419.88867 C 309.79883 417.16168 308.80749 414.80553 306.82422 412.82227 C 304.84095 410.839 302.48481 409.84766 299.75781 409.84766 L 231.70703 409.84766 C 224.76559 409.84766 219.43543 413.19514 215.7168 419.88867 L 167.00391 509.13477 L 118.28906 419.88867 C 114.57043 413.19514 109.24027 409.84766 102.29883 409.84766 L 34.248047 409.84766 z M 432.51367 409.84766 C 423.58896 409.84766 418.01047 413.93815 415.7793 422.11914 L 334.71289 659.74023 C 334.46498 660.48396 334.3418 661.59849 334.3418 663.08594 C 334.3418 664.57339 335.08481 666.18456 336.57227 667.91992 C 338.30763 669.40737 340.29031 670.15234 342.52148 670.15234 L 412.80469 670.15234 C 420.73776 670.15234 426.31625 665.93671 429.53906 657.50781 L 438.83398 631.47852 L 529.57031 631.47852 L 538.86523 657.50781 C 542.08805 665.93671 547.66653 670.15234 555.59961 670.15234 L 625.88281 670.15234 C 628.11399 670.15234 629.97153 669.40737 631.45898 667.91992 C 633.19435 666.18456 634.0625 664.57339 634.0625 663.08594 C 634.0625 661.59849 633.93931 660.48396 633.69141 659.74023 L 552.625 422.11914 C 550.39382 413.93815 544.81534 409.84766 535.89062 409.84766 L 432.51367 409.84766 z M 670.87695 409.84766 C 668.14996 409.84766 665.79382 410.839 663.81055 412.82227 C 661.82728 414.80553 660.83594 417.16168 660.83594 419.88867 L 660.83594 479.75781 C 660.83594 482.48481 661.82728 484.84095 663.81055 486.82422 C 665.79382 488.80749 668.14996 489.79883 670.87695 489.79883 L 750.82812 489.79883 L 750.82812 660.11133 C 750.82813 662.83832 751.81947 665.19447 753.80273 667.17773 C 755.786 669.161 758.14019 670.15234 760.86719 670.15234 L 837.4707 670.15234 C 840.1977 670.15234 842.55384 669.161 844.53711 667.17773 C 846.52038 665.19447 847.51172 662.83832 847.51172 660.11133 L 847.51172 489.79883 L 927.46289 489.79883 C 930.18989 489.79883 932.54407 488.80749 934.52734 486.82422 C 936.51061 484.84095 937.50195 482.48481 937.50195 479.75781 L 937.50195 419.88867 C 937.50195 417.16168 936.51061 414.80553 934.52734 412.82227 C 932.54407 410.839 930.18989 409.84766 927.46289 409.84766 L 670.87695 409.84766 z M 986.95898 409.84766 C 984.23199 409.84766 981.8778 410.839 979.89453 412.82227 C 977.91126 414.80553 976.91992 417.16168 976.91992 419.88867 L 976.91992 479.75781 C 976.91992 482.48481 977.91126 484.84095 979.89453 486.82422 C 981.8778 488.80749 984.23199 489.79883 986.95898 489.79883 L 1066.9102 489.79883 L 1066.9102 660.11133 C 1066.9102 662.83832 1067.9015 665.19447 1069.8848 667.17773 C 1071.868 669.161 1074.2242 670.15234 1076.9512 670.15234 L 1153.5547 670.15234 C 1156.2817 670.15234 1158.6359 669.161 1160.6191 667.17773 C 1162.6024 665.19447 1163.5938 662.83832 1163.5938 660.11133 L 1163.5938 489.79883 L 1243.5449 489.79883 C 1246.2719 489.79883 1248.6281 488.80749 1250.6113 486.82422 C 1252.5946 484.84095 1253.5859 482.48481 1253.5859 479.75781 L 1253.5859 419.88867 C 1253.5859 417.16168 1252.5946 414.80553 1250.6113 412.82227 C 1248.6281 410.839 1246.2719 409.84766 1243.5449 409.84766 L 986.95898 409.84766 z M 1316.8008 409.84766 C 1314.0738 409.84766 1311.7196 410.839 1309.7363 412.82227 C 1307.7531 414.80553 1306.7617 417.16168 1306.7617 419.88867 L 1306.7617 660.11133 C 1306.7617 662.83832 1307.7531 665.19447 1309.7363 667.17773 C 1311.7196 669.161 1314.0738 670.15234 1316.8008 670.15234 L 1551.8184 670.15234 C 1554.5454 670.15234 1556.9015 669.161 1558.8848 667.17773 C 1560.868 665.19447 1561.8594 662.83832 1561.8594 660.11133 L 1561.8594 607.67969 C 1561.8594 604.95269 1560.868 602.59655 1558.8848 600.61328 C 1556.9015 598.63001 1554.5454 597.63867 1551.8184 597.63867 L 1403.4453 597.63867 L 1403.4453 574.21094 L 1527.6484 574.21094 C 1530.3754 574.21094 1532.7296 573.2196 1534.7129 571.23633 C 1536.6962 569.25306 1537.6875 566.89887 1537.6875 564.17188 L 1537.6875 515.82812 C 1537.6875 513.10113 1536.6962 510.74694 1534.7129 508.76367 C 1532.7296 506.7804 1530.3754 505.78906 1527.6484 505.78906 L 1403.4453 505.78906 L 1403.4453 482.36133 L 1548.0996 482.36133 C 1550.8266 482.36133 1553.1827 481.36999 1555.166 479.38672 C 1557.1493 477.40345 1558.1406 475.04731 1558.1406 472.32031 L 1558.1406 419.88867 C 1558.1406 417.16168 1557.1493 414.80553 1555.166 412.82227 C 1553.1827 410.839 1550.8266 409.84766 1548.0996 409.84766 L 1316.8008 409.84766 z M 1633.2559 409.84766 C 1630.5289 409.84766 1628.1747 410.839 1626.1914 412.82227 C 1624.2081 414.80553 1623.2168 417.16168 1623.2168 419.88867 L 1623.2168 660.11133 C 1623.2168 662.83832 1624.2081 665.19447 1626.1914 667.17773 C 1628.1747 669.161 1630.5289 670.15234 1633.2559 670.15234 L 1713.5781 670.15234 C 1716.3051 670.15234 1718.6613 669.161 1720.6445 667.17773 C 1722.6278 665.19447 1723.6191 662.83832 1723.6191 660.11133 L 1723.6191 587.22656 L 1754.8555 587.22656 L 1787.5801 660.85547 C 1790.555 667.05319 1795.76 670.15234 1803.1973 670.15234 L 1887.6113 670.15234 C 1889.8425 670.15234 1891.702 669.40737 1893.1895 667.91992 C 1894.9248 666.18456 1895.791 664.4502 1895.791 662.71484 C 1895.791 660.97948 1895.5446 659.61663 1895.0488 658.625 L 1849.3086 573.0957 C 1875.339 557.97327 1888.3555 533.55347 1888.3555 499.83789 C 1888.3555 472.07212 1878.4382 450.13359 1858.6055 434.01953 C 1838.7728 417.90547 1811.8756 409.84766 1777.9121 409.84766 L 1633.2559 409.84766 z M 1723.6191 479.01367 L 1770.1016 479.01367 C 1775.8035 479.01367 1780.0191 481.12149 1782.7461 485.33594 C 1785.721 489.30248 1787.207 494.01281 1787.207 499.4668 C 1787.207 504.92079 1785.721 509.50793 1782.7461 513.22656 C 1779.7712 516.69728 1775.5556 518.43164 1770.1016 518.43164 L 1723.6191 518.43164 L 1723.6191 479.01367 z M 484.20117 481.61719 L 510.60352 558.96484 L 457.80078 558.96484 L 484.20117 481.61719 z M 1110.3203 698.36719 C 1108.9123 698.36719 1107.6978 698.8803 1106.6738 699.9043 C 1105.6498 700.9283 1105.1367 702.14473 1105.1367 703.55273 L 1105.1367 732.54297 C 1105.1367 733.95097 1105.6498 735.16741 1106.6738 736.19141 C 1107.6978 737.21541 1108.9123 737.72852 1110.3203 737.72852 L 1145.457 737.72852 L 1145.457 793.4082 L 1110.3203 793.4082 C 1108.9123 793.4082 1107.6978 793.91936 1106.6738 794.94336 C 1105.6498 795.96736 1105.1367 797.1838 1105.1367 798.5918 L 1105.1367 827.58398 C 1105.1367 828.99198 1105.6498 830.20842 1106.6738 831.23242 C 1107.6978 832.25642 1108.9123 832.76758 1110.3203 832.76758 L 1232.0488 832.76758 C 1233.4568 832.76758 1234.6733 832.25642 1235.6973 831.23242 C 1236.7213 830.20842 1237.2324 828.99198 1237.2324 827.58398 L 1237.2324 798.5918 C 1237.2324 797.1838 1236.7213 795.96736 1235.6973 794.94336 C 1234.6733 793.91936 1233.4568 793.4082 1232.0488 793.4082 L 1197.2969 793.4082 L 1197.2969 737.72852 L 1232.0488 737.72852 C 1233.4568 737.72852 1234.6733 737.21541 1235.6973 736.19141 C 1236.7213 735.16741 1237.2324 733.95097 1237.2324 732.54297 L 1237.2324 703.55273 C 1237.2324 702.14473 1236.7213 700.9283 1235.6973 699.9043 C 1234.6733 698.8803 1233.4568 698.36719 1232.0488 698.36719 L 1110.3203 698.36719 z M 1273.1367 698.36719 C 1271.7287 698.36719 1270.5123 698.8803 1269.4883 699.9043 C 1268.4643 700.9283 1267.9531 702.14473 1267.9531 703.55273 L 1267.9531 827.58398 C 1267.9531 828.99198 1268.4643 830.20842 1269.4883 831.23242 C 1270.5123 832.25642 1271.7287 832.76758 1273.1367 832.76758 L 1308.8496 832.76758 C 1310.2576 832.76758 1311.4721 832.25642 1312.4961 831.23242 C 1313.5201 830.20842 1314.0332 828.99198 1314.0332 827.58398 L 1314.0332 775.35938 L 1355.8887 828.73633 C 1357.9367 831.42433 1360.4964 832.76758 1363.5684 832.76758 L 1394.4805 832.76758 C 1395.8885 832.76758 1397.1049 832.25642 1398.1289 831.23242 C 1399.1529 830.20842 1399.6641 828.99198 1399.6641 827.58398 L 1399.6641 703.55273 C 1399.6641 702.14473 1399.1529 700.9283 1398.1289 699.9043 C 1397.1049 698.8803 1395.8885 698.36719 1394.4805 698.36719 L 1358.7695 698.36719 C 1357.3615 698.36719 1356.1451 698.8803 1355.1211 699.9043 C 1354.0971 700.9283 1353.584 702.14473 1353.584 703.55273 L 1353.584 760 L 1311.7285 702.20703 C 1309.8085 699.64703 1307.3122 698.36719 1304.2402 698.36719 L 1273.1367 698.36719 z M 1435.7598 698.36719 C 1434.3518 698.36719 1433.1373 698.8803 1432.1133 699.9043 C 1431.0893 700.9283 1430.5762 702.14473 1430.5762 703.55273 L 1430.5762 827.58398 C 1430.5762 828.99198 1431.0893 830.20842 1432.1133 831.23242 C 1433.1373 832.25642 1434.3518 832.76758 1435.7598 832.76758 L 1497.0078 832.76758 C 1518.1278 832.76758 1535.0253 828.5437 1547.6973 820.0957 C 1561.5213 810.7517 1568.4316 795.83937 1568.4316 775.35938 L 1568.4316 755.77539 C 1568.4316 742.59139 1565.232 731.58395 1558.832 722.75195 C 1552.432 713.91995 1544.0477 707.64755 1533.6797 703.93555 C 1523.3117 700.22355 1511.0878 698.36719 1497.0078 698.36719 L 1435.7598 698.36719 z M 1601.6484 698.36719 C 1600.2404 698.36719 1599.024 698.8803 1598 699.9043 C 1596.976 700.9283 1596.4648 702.14473 1596.4648 703.55273 L 1596.4648 827.58398 C 1596.4648 828.99198 1596.976 830.20842 1598 831.23242 C 1599.024 832.25642 1600.2404 832.76758 1601.6484 832.76758 L 1722.9922 832.76758 C 1724.4002 832.76758 1725.6166 832.25642 1726.6406 831.23242 C 1727.6646 830.20842 1728.1758 828.99198 1728.1758 827.58398 L 1728.1758 800.51172 C 1728.1758 799.10372 1727.6646 797.88728 1726.6406 796.86328 C 1725.6166 795.83928 1724.4002 795.32812 1722.9922 795.32812 L 1646.3848 795.32812 L 1646.3848 783.23242 L 1710.5117 783.23242 C 1711.9197 783.23242 1713.1362 782.71931 1714.1602 781.69531 C 1715.1842 780.67131 1715.6953 779.45488 1715.6953 778.04688 L 1715.6953 753.08789 C 1715.6953 751.67989 1715.1842 750.46345 1714.1602 749.43945 C 1713.1362 748.41545 1711.9197 747.9043 1710.5117 747.9043 L 1646.3848 747.9043 L 1646.3848 735.80859 L 1721.0723 735.80859 C 1722.4803 735.80859 1723.6967 735.29548 1724.7207 734.27148 C 1725.7447 733.24748 1726.2559 732.03105 1726.2559 730.62305 L 1726.2559 703.55273 C 1726.2559 702.14473 1725.7447 700.9283 1724.7207 699.9043 C 1723.6967 698.8803 1722.4803 698.36719 1721.0723 698.36719 L 1601.6484 698.36719 z M 1760.8164 698.36719 C 1759.6644 698.36719 1758.6401 698.81494 1757.7441 699.71094 C 1756.9761 700.47894 1756.5918 701.37639 1756.5918 702.40039 C 1756.5918 703.42439 1756.784 704.19113 1757.168 704.70312 L 1794.9922 761.53516 L 1752.5605 826.43164 C 1752.1765 826.94364 1751.9844 827.71233 1751.9844 828.73633 C 1751.9844 829.76033 1752.3687 830.71923 1753.1367 831.61523 C 1754.0327 832.38323 1755.055 832.76758 1756.207 832.76758 L 1797.6797 832.76758 C 1801.0077 832.76758 1803.6327 831.29556 1805.5527 828.35156 L 1823.791 799.74414 L 1842.416 828.35156 C 1844.208 831.29556 1846.8311 832.76758 1850.2871 832.76758 L 1891.5684 832.76758 C 1892.7204 832.76758 1893.6793 832.38323 1894.4473 831.61523 C 1895.3433 830.71923 1895.791 829.76033 1895.791 828.73633 C 1895.791 827.71233 1895.5988 826.94364 1895.2148 826.43164 L 1854.127 764.03125 L 1894.2559 704.70312 C 1894.6399 704.19113 1894.832 703.42439 1894.832 702.40039 C 1894.832 701.37639 1894.3843 700.47894 1893.4883 699.71094 C 1892.7203 698.81494 1891.7594 698.36719 1890.6074 698.36719 L 1849.3281 698.36719 C 1846.2561 698.36719 1843.6311 699.8392 1841.4551 702.7832 L 1825.3281 727.74414 L 1810.3516 703.16797 C 1808.3036 699.96797 1805.6151 698.36719 1802.2871 698.36719 L 1760.8164 698.36719 z M 1480.4961 735.80859 L 1497.9688 735.80859 C 1503.9848 735.80859 1508.7198 737.28061 1512.1758 740.22461 C 1515.7598 743.04061 1517.5527 747.07231 1517.5527 752.32031 L 1517.5527 778.81641 C 1517.5527 784.06441 1515.7598 788.15952 1512.1758 791.10352 C 1508.7198 793.91952 1503.9848 795.32813 1497.9688 795.32812 L 1480.4961 795.32812 L 1480.4961 735.80859 z " />
  </g>
</svg>
